<?xml version="1.0" encoding="utf-8"?>
<!-- Generator: Adobe Illustrator 15.0.0, SVG Export Plug-In . SVG Version: 6.00 Build 0)  -->
<!DOCTYPE svg PUBLIC "-//W3C//DTD SVG 1.1//EN" "http://www.w3.org/Graphics/SVG/1.1/DTD/svg11.dtd">
<svg version="1.1" xmlns="http://www.w3.org/2000/svg" xmlns:xlink="http://www.w3.org/1999/xlink" x="0px" y="0px" width="1059px"
	 height="325.5px" viewBox="0 0 1059 325.5" enable-background="new 0 0 1059 325.5" xml:space="preserve">
<g id="Layer_1">
	<rect fill="#357DBD" width="1065" height="325.5"/>
	<text transform="matrix(1 0 0 1 384 129.8447)"><tspan x="0" y="0" fill="#FFFFFF" font-family="'HelveticaLTStd-Blk'" font-size="48">Digital Transformation</tspan><tspan x="0" y="57.6" fill="#FFFFFF" font-family="'HelveticaLTStd-Blk'" font-size="48">in Metrology</tspan></text>
	<text transform="matrix(1 0 0 1 384 241.5127)" fill="#FCD18D" font-family="'HelveticaLTStd-Bold'" font-size="24">APMP-DXFG</text>
</g>
<g id="Layer_2">
	<g>
		<g>
			<polygon fill="#FCD18D" points="218.845,162.899 374.663,124.404 328.198,245.904 			"/>
			<polygon fill="#E19AC2" points="218.163,161.427 61.248,126.682 109.955,247.615 			"/>
			<polygon fill="#F4988D" points="216.333,162.283 287.708,17.352 144.958,15.324 			"/>
			<polygon fill="#7CA8D8" points="221.006,163.111 85.533,263.297 219.97,304.176 			"/>
			<polygon fill="#B3D18C" points="217.519,161.634 350.837,261.994 218.101,305.465 			"/>
			<polygon fill="#F5B08D" points="218.149,161.982 374.421,125.415 287.694,15.324 			"/>
			<polygon fill="#A07DB6" points="218.255,161.634 61.335,127.31 144.781,16.735 			"/>
			<path fill="#FFFFFF" d="M284.351,163.111c0,36.586-29.664,66.25-66.25,66.25s-66.25-29.664-66.25-66.25
				c0-36.586,29.665-66.25,66.25-66.25S284.351,126.525,284.351,163.111z"/>
		</g>
		<line stroke="#FFFFFF" stroke-width="4" x1="155.422" y1="37.72" x2="191.438" y2="108.748"/>
		<line stroke="#FFFFFF" stroke-width="4" x1="281.293" y1="32.238" x2="245.277" y2="103.266"/>
		<line stroke="#FFFFFF" stroke-width="4" x1="218.226" y1="224.166" x2="218.075" y2="299.151"/>
		<line stroke="#FFFFFF" stroke-width="4" x1="266.206" y1="198.849" x2="326.079" y2="244.295"/>
		<line stroke="#FFFFFF" stroke-width="4" x1="169.231" y1="201.443" x2="109.358" y2="246.889"/>
		<line stroke="#FFFFFF" stroke-width="4" x1="84.169" y1="132.305" x2="156.078" y2="148.033"/>
		<line stroke="#FFFFFF" stroke-width="4" x1="279.017" y1="148.033" x2="352.493" y2="130.546"/>
		<g id="_x3C_D_x3E__1_">
			<g>
				<rect x="96.611" y="131.627" width="9.301" height="9.301"/>
				<rect x="96.611" y="142.092" width="9.301" height="9.301"/>
				<rect x="96.611" y="152.555" width="9.301" height="9.303"/>
			</g>
			<g>
				<rect x="96.611" y="163.018" width="9.301" height="9.302"/>
				<rect x="96.611" y="173.482" width="9.301" height="9.301"/>
				<rect x="96.611" y="183.946" width="9.301" height="9.302"/>
			</g>
			<g>
				<rect x="106.7" y="183.946" width="9.301" height="9.302"/>
				<rect x="117.104" y="183.946" width="9.301" height="9.302"/>
			</g>
			<g>
				<rect x="137.449" y="142.092" width="9.302" height="9.301"/>
				<rect x="137.449" y="152.555" width="9.302" height="9.303"/>
				<rect x="137.449" y="163.018" width="9.302" height="9.302"/>
				<rect x="137.449" y="173.482" width="9.302" height="9.301"/>
			</g>
			<g>
				<rect x="117.022" y="131.627" width="9.3" height="9.301"/>
				<rect x="127.485" y="131.627" width="9.302" height="9.301"/>
			</g>
			<g>
				<rect x="117.104" y="183.946" width="9.301" height="9.302"/>
				<rect x="106.7" y="131.627" width="9.301" height="9.301"/>
				<rect x="127.566" y="183.946" width="9.302" height="9.302"/>
			</g>
		</g>
		<g id="_x3C_F_x3E__1_">
			<g>
				<rect x="231.099" y="131.627" width="9.302" height="9.301"/>
				<rect x="231.099" y="142.092" width="9.302" height="9.301"/>
				<rect x="231.099" y="152.555" width="9.302" height="9.303"/>
			</g>
			<g>
				<rect x="231.099" y="163.018" width="9.302" height="9.302"/>
				<rect x="231.099" y="173.482" width="9.302" height="9.301"/>
				<rect x="231.099" y="183.946" width="9.302" height="9.302"/>
			</g>
			<g>
				<rect x="241.127" y="131.627" width="9.302" height="9.301"/>
				<rect x="251.591" y="131.627" width="9.302" height="9.301"/>
				<rect x="262.056" y="131.627" width="9.301" height="9.301"/>
			</g>
			<g>
				<rect x="241.127" y="152.555" width="9.302" height="9.303"/>
				<rect x="251.591" y="152.555" width="9.302" height="9.303"/>
				<rect x="262.056" y="152.555" width="9.301" height="9.303"/>
			</g>
		</g>
		<g id="_x3C_G_x3E__1_">
			<g>
				<rect x="289.891" y="141.509" width="9.302" height="9.302"/>
				<rect x="289.891" y="151.973" width="9.302" height="9.302"/>
			</g>
			<rect x="331.31" y="172.901" width="9.301" height="9.302"/>
			<g>
				<rect x="289.891" y="162.438" width="9.302" height="9.301"/>
				<rect x="289.891" y="172.901" width="9.302" height="9.302"/>
			</g>
			<g>
				<rect x="299.919" y="131.046" width="9.301" height="9.3"/>
				<rect x="310.38" y="131.046" width="9.303" height="9.3"/>
			</g>
			<g>
				<rect x="299.919" y="183.366" width="9.301" height="9.302"/>
				<rect x="310.38" y="183.366" width="9.303" height="9.302"/>
			</g>
			<g>
				<rect x="331.31" y="141.509" width="9.301" height="9.302"/>
				<rect x="320.845" y="162.438" width="9.302" height="9.301"/>
				<rect x="331.31" y="162.438" width="9.301" height="9.301"/>
			</g>
			<g>
				<rect x="310.38" y="131.046" width="9.303" height="9.3"/>
				<rect x="320.845" y="131.046" width="9.302" height="9.3"/>
			</g>
			<g>
				<rect x="310.963" y="183.366" width="9.302" height="9.302"/>
				<rect x="321.428" y="183.366" width="9.302" height="9.302"/>
			</g>
		</g>
		<g id="_x3C_X_x3E__1_">
			<g>
				<rect x="161.063" y="131.627" width="9.302" height="9.301"/>
				<rect x="171.527" y="142.092" width="9.301" height="9.301"/>
			</g>
			<g>
				<rect x="181.555" y="163.018" width="9.302" height="9.302"/>
				<rect x="171.091" y="173.482" width="9.302" height="9.301"/>
				<rect x="161.063" y="183.946" width="9.302" height="9.302"/>
			</g>
			<g>
				<rect x="191.438" y="174.064" width="9.301" height="9.302"/>
				<rect x="201.901" y="184.529" width="9.302" height="9.299"/>
			</g>
			<g>
				<rect x="202.048" y="131.627" width="9.299" height="9.301"/>
				<rect x="192.02" y="142.092" width="9.3" height="9.301"/>
			</g>
			<rect x="181.555" y="152.555" width="9.302" height="9.303"/>
			<g display="none">
				<rect x="171.091" y="131.627" display="inline" width="9.302" height="9.301"/>
				<rect x="181.555" y="131.627" display="inline" width="9.302" height="9.301"/>
				<rect x="192.02" y="131.627" display="inline" width="9.3" height="9.301"/>
			</g>
		</g>
		<circle fill="none" stroke="#FFFFFF" stroke-width="9" cx="216.185" cy="162.262" r="131.85"/>
		<path fill="#357DBD" d="M379.032,0h-23.555h-4.945H84.169h-2.636H56.601v295h-0.083v30.5h322V301h0.514V0z M216.918,29.852
			c72.86,0,131.925,59.065,131.925,131.926c0,72.86-59.064,131.926-131.925,131.926S84.992,234.638,84.992,161.777
			C84.992,88.917,144.058,29.852,216.918,29.852z"/>
	</g>
</g>
</svg>
